<svg xmlns:dc="http://purl.org/dc/elements/1.1/" xmlns:cc="http://creativecommons.org/ns#" xmlns:rdf="http://www.w3.org/1999/02/22-rdf-syntax-ns#" xmlns:svg="http://www.w3.org/2000/svg" xmlns="http://www.w3.org/2000/svg" xmlns:xlink="http://www.w3.org/1999/xlink" id="svg551710" viewBox="0 0 1024 768" height="768px" width="1024px" version="1.1">
  <metadata id="metadata551716">
    <rdf:rdf>
      <cc:work rdf:about="">
        <dc:format>image/svg+xml</dc:format>
        <dc:type rdf:resource="http://purl.org/dc/dcmitype/StillImage"></dc:type>
      </cc:work>
    </rdf:rdf>
  </metadata>
  <defs id="defs551714"></defs>
  <linearGradient spreadMethod="pad" y2="30%" x2="-10%" y1="120%" x1="30%" id="3d_gradient2-logo-33eef91c-4a63-42e5-a8d9-dbc6ba69e5bc">
    <stop id="stop551691" stop-opacity="1" stop-color="#ffffff" offset="0%"></stop>
    <stop id="stop551693" stop-opacity="1" stop-color="#000000" offset="100%"></stop>
  </linearGradient>
  <linearGradient gradientTransform="rotate(-30)" spreadMethod="pad" y2="30%" x2="-10%" y1="120%" x1="30%" id="3d_gradient3-logo-33eef91c-4a63-42e5-a8d9-dbc6ba69e5bc">
    <stop id="stop551696" stop-opacity="1" stop-color="#ffffff" offset="0%"></stop>
    <stop id="stop551698" stop-opacity="1" stop-color="#cccccc" offset="50%"></stop>
    <stop id="stop551700" stop-opacity="1" stop-color="#000000" offset="100%"></stop>
  </linearGradient>
  <g id="logo-group">
    <image xlink:href="" id="container" x="272" y="144" width="480" height="480" transform="translate(0 0)" style="display: none;"></image>
    <g id="logo-center" transform="translate(0 0)">
      <image xlink:href="" id="icon_container" x="0" y="0" style="display: none;"></image>
      <g id="slogan" style="font-style:oblique;font-weight:normal;font-size:32px;line-height:1;font-family:'Playfair Display';font-variant-ligatures:none;text-align:center;text-anchor:middle" transform="translate(0 0)"></g>
      <g id="title" style="font-style:normal;font-weight:normal;font-size:72px;line-height:1;font-family:'Brandmark Serif 1';font-variant-ligatures:normal;text-align:center;text-anchor:middle" transform="translate(0 0)">
        <path id="path551719" style="font-style:normal;font-weight:normal;font-size:72px;line-height:1;font-family:'Brandmark Serif 1';font-variant-ligatures:normal;text-align:center;text-anchor:middle" d="m 389.95887,-50.4 h -22.032 c 3.312,0 5.976,3.168 5.976,6.48 v 37.44 c 0,3.312 -2.664,6.48 -5.976,6.48 h 16.056 v -43.92 c 0,-3.312 2.66401,-6.48 5.976,-6.48 z m 7.344,50.4 h 12.6 v -12.6 c 0,6.696 -5.904,12.6 -12.6,12.6 z" stroke-width="0" stroke-linejoin="miter" stroke-miterlimit="2" fill="#fee440" stroke="#fee440" transform="translate(0 300.673) translate(332.1652312500001 74.912) scale(1.25) translate(-367.92687 50.4)"></path>
        <path id="path551721" style="font-style:normal;font-weight:normal;font-size:72px;line-height:1;font-family:'Brandmark Serif 1';font-variant-ligatures:normal;text-align:center;text-anchor:middle" d="m 427.10525,-41.544 c 3.456,0 6.264,-2.88 6.264,-6.336 0,-3.456 -2.808,-6.264 -6.264,-6.264 -3.528,0 -6.336,2.808 -6.336,6.264 0,3.456 2.808,6.336 6.336,6.336 z m 4.752,35.064 v -28.8 c -6.48,3.312 -10.512,5.04 -15.552,5.04 h 0.504 c 3.312,0 5.976,3.168 5.976,6.48 v 17.28 c 0,3.312 -2.664,6.48 -5.976,6.48 h 21.024 c -3.312,0 -5.976,-3.168 -5.976,-6.48 z" stroke-width="0" stroke-linejoin="miter" stroke-miterlimit="2" fill="#fee440" stroke="#fee440" transform="translate(0 300.673) translate(392.63820625000005 70.23200000000001) scale(1.25) translate(-416.30525 54.144)"></path>
        <path id="path551723" style="font-style:normal;font-weight:normal;font-size:72px;line-height:1;font-family:'Brandmark Serif 1';font-variant-ligatures:normal;text-align:center;text-anchor:middle" d="m 414.629,-79.272 c 0,-6.912 6.552,-8.64 8.568,-8.64 -5.4,0 -15.696,3.456 -15.696,12.456 0,9 11.736,15.336 29.232,10.872 -13.32,2.016 -22.104,-7.704 -22.104,-14.688 z m 41.76,72.792 v -50.472 c 0,-19.152 -12.6,-30.6 -30.528,-30.96 16.704,0.648 21.456,21.888 21.456,28.8 V -6.48 c 0,3.312 -2.736,6.48 -5.976,6.48 h 21.024 c -3.312,0 -5.976,-3.168 -5.976,-6.48 z m 50.112,-76.608 c -12.168,0 -38.736,10.872 -47.952,13.248 18.288,-4.248 36.576,-7.2 45.864,-7.2 11.304,0 20.304,5.832 20.16,12.24 1.008,-8.136 -3.672,-18.288 -18.072,-18.288 z m -47.952,13.248 c -0.504,0.144 -0.936,0.216 -1.368,0.36 0.36,-0.072 0.864,-0.216 1.368,-0.36 z" stroke-width="0" stroke-linejoin="miter" stroke-miterlimit="2" fill="#fee440" stroke="#fee440" transform="translate(0 300.673) translate(381.63289375 28.02199999999999) scale(1.25) translate(-407.501 87.912)"></path>
        <path id="path551725" style="font-style:normal;font-weight:normal;font-size:72px;line-height:1;font-family:'Brandmark Serif 1';font-variant-ligatures:normal;text-align:center;text-anchor:middle" d="m 522.062,-43.992 v 0.216 c -0.072,0.072 -0.072,0.144 -0.072,0.144 -0.432,1.584 -0.144,3.384 0.936,4.752 1.8,2.376 5.256,2.88 7.632,1.008 2.376,-1.8 2.808,-5.256 1.008,-7.632 -2.376,-3.096 -6.192,-4.896 -13.392,-4.896 1.944,0 5.184,2.16 3.888,6.408 z m -21.384,1.8 c 0,-2.592 1.368,-5.04 1.368,-5.04 0,0 -5.472,3.24 -5.472,9.648 0,7.848 3.888,11.304 13.896,17.712 10.512,6.768 18.072,9.288 18.072,14.112 0,3.96 -3.744,5.76 -3.744,5.76 0,0 10.08,-4.536 10.08,-13.104 0,-18 -34.2,-18 -34.2,-29.088 z m -3.672,29.016 V 0.576 c 0,-1.944 2.016,-1.8 4.608,-1.08 2.376,0.72 4.968,1.08 7.776,1.08 -6.048,0 -10.584,-5.904 -12.384,-13.752 z" stroke-width="0" stroke-linejoin="miter" stroke-miterlimit="2" fill="#f15bb5" stroke="#f15bb5" transform="translate(0 300.673) translate(492.97414375 74.912) scale(1.25) translate(-496.574 50.4)"></path>
        <path id="path551727" style="font-style:normal;font-weight:normal;font-size:72px;line-height:1;font-family:'Brandmark Serif 1';font-variant-ligatures:normal;text-align:center;text-anchor:middle" d="m 561.46063,-35.784 c -10.00801,0 -18.648,5.616 -18.648,18.144 0,12.528 8.63999,18.144 18.648,18.144 -4.75201,0 -9.072,-6.048 -9.072,-18.144 0,-12.096 4.31999,-18.144 9.072,-18.144 z m 3.024,0 c 4.75199,0 9.072,6.048 9.072,18.144 0,12.096 -4.32001,18.144 -9.072,18.144 10.00799,0 18.64799,-5.616 18.64799,-18.144 0,-12.528 -8.64,-18.144 -18.64799,-18.144 z" stroke-width="0" stroke-linejoin="miter" stroke-miterlimit="2" fill="#f15bb5" stroke="#f15bb5" transform="translate(0 300.673) translate(550.77243125 93.18200000000002) scale(1.25) translate(-542.81263 35.784)"></path>
        <path id="path551729" style="font-style:normal;font-weight:normal;font-size:72px;line-height:1;font-family:'Brandmark Serif 1';font-variant-ligatures:normal;text-align:center;text-anchor:middle" d="m 601.91112,-3.96 v -31.32 h -15.048 c 3.312,0 5.976,3.168 5.976,6.48 v 16.272 c 0,10.152 6.696,13.536 14.04001,13.032 -1.87201,0 -4.96801,-1.872 -4.96801,-4.464 z m 22.89601,-2.52 v -28.8 h -15.048 c 3.24,0 5.976,3.168 5.976,6.48 V 0 h 15.048 c -3.312,0 -5.976,-3.168 -5.976,-6.48 z" stroke-width="0" stroke-linejoin="miter" stroke-miterlimit="2" fill="#f15bb5" stroke="#f15bb5" transform="translate(0 300.673) translate(605.8355437499999 93.81200000000001) scale(1.25) translate(-586.86312 35.28)"></path>
        <path id="path551731" style="font-style:normal;font-weight:normal;font-size:72px;line-height:1;font-family:'Brandmark Serif 1';font-variant-ligatures:normal;text-align:center;text-anchor:middle" d="m 649.6865,-6.48 v -48.96 c -6.552,3.312 -10.584,5.04 -15.552,5.04 h 0.504 c 3.312,0 5.976,3.168 5.976,6.48 v 37.44 c 0,3.312 -2.664,6.48 -5.976,6.48 h 21.024 c -3.312,0 -5.976,-3.168 -5.976,-6.48 z" stroke-width="0" stroke-linejoin="miter" stroke-miterlimit="2" fill="#f15bb5" stroke="#f15bb5" transform="translate(0 300.673) translate(664.9247687499999 68.61200000000001) scale(1.25) translate(-634.1345 55.44)"></path>
      </g>
      <image xlink:href="" id="icon" x="0" y="0" style="display: none;"></image>
    </g>
  </g>
</svg>